<?xml version="1.0" encoding="UTF-8" standalone="no"?>
<!-- Created with Inkscape (http://www.inkscape.org/) -->

<svg
   xmlns:dc="http://purl.org/dc/elements/1.1/"
   xmlns:cc="http://creativecommons.org/ns#"
   xmlns:rdf="http://www.w3.org/1999/02/22-rdf-syntax-ns#"
   xmlns:svg="http://www.w3.org/2000/svg"
   xmlns="http://www.w3.org/2000/svg"
   xmlns:sodipodi="http://sodipodi.sourceforge.net/DTD/sodipodi-0.dtd"
   xmlns:inkscape="http://www.inkscape.org/namespaces/inkscape"
   width="1570.625"
   height="1047.75"
   id="svg2"
   version="1.1"
   inkscape:version="0.48.4 r9939"
   sodipodi:docname="stock_market_vs_humanity.svg">
  <defs
     id="defs4">
    <filter
       color-interpolation-filters="sRGB"
       id="filter15393">
      <feGaussianBlur
         stdDeviation="30.57388"
         id="feGaussianBlur15395" />
    </filter>
    <filter
       id="filter6308"
       inkscape:label="Drop Shadow"
       color-interpolation-filters="sRGB">
      <feFlood
         id="feFlood6310"
         flood-opacity="0.8"
         flood-color="rgb(0,0,0)"
         result="flood" />
      <feComposite
         id="feComposite6312"
         in2="SourceGraphic"
         in="flood"
         operator="in"
         result="composite1" />
      <feGaussianBlur
         id="feGaussianBlur6314"
         stdDeviation="10"
         result="blur" />
      <feOffset
         id="feOffset6316"
         dx="20"
         dy="20"
         result="offset" />
      <feComposite
         id="feComposite6318"
         in2="offset"
         in="SourceGraphic"
         operator="over"
         result="composite2" />
    </filter>
  </defs>
  <sodipodi:namedview
     id="base"
     pagecolor="#ffffff"
     bordercolor="#666666"
     borderopacity="1.0"
     inkscape:pageopacity="0.0"
     inkscape:pageshadow="2"
     inkscape:zoom="0.22111582"
     inkscape:cx="1612.8854"
     inkscape:cy="519.83433"
     inkscape:document-units="px"
     inkscape:current-layer="layer1"
     showgrid="false"
     inkscape:window-width="1280"
     inkscape:window-height="749"
     inkscape:window-x="0"
     inkscape:window-y="26"
     inkscape:window-maximized="1"
     fit-margin-top="0"
     fit-margin-left="0"
     fit-margin-right="0"
     fit-margin-bottom="0" />
  <metadata
     id="metadata7">
    <rdf:RDF>
      <cc:Work
         rdf:about="">
        <dc:format>image/svg+xml</dc:format>
        <dc:type
           rdf:resource="http://purl.org/dc/dcmitype/StillImage" />
        <dc:title></dc:title>
      </cc:Work>
    </rdf:RDF>
  </metadata>
  <g
     inkscape:label="Layer 1"
     inkscape:groupmode="layer"
     id="layer1"
     transform="translate(2206.3125,-7.375)">
    <g
       id="g15397"
       transform="matrix(0.40173,0,0,0.40173,-4227.2913,981.51892)" />
    <g
       id="g3856"
       transform="matrix(8.9575,0,0,8.9575,-2041.2613,334.77892)" />
    <g
       id="g6512">
      <path
         d="m -2182.8065,1039.1589 h 1523.7 m -1523.7,-50.79998 h 1523.7 m -1523.7,-50.79 h 1523.7 m -1523.7,-50.79 h 1523.7 m -1523.7,-50.79 h 1523.7 m -1523.7,-50.79 h 1523.7 m -1523.7,-50.79 h 1523.7 m -1523.7,-50.79 h 1523.7 m -1523.7,-50.79 h 1523.7 m -1523.7,-50.79 h 1523.7 m -1523.7,-50.79 h 1523.7 m -1523.7,-50.79 h 1523.7 m -1523.7,-50.79 h 1523.7 m -1523.7,-50.79 h 1523.7 m -1523.7,-50.79 h 1523.7 m -1523.7,-50.79 h 1523.7 m -1523.7,-50.79 h 1523.7 m -1523.7,-50.79 h 1523.7 m -1523.7,-50.79 h 1523.7 m -1523.7,-50.795001 h 1523.7 m -1523.7,-50.79 h 1523.7 m -1523.7,1015.799981 V 23.343919 m 50.79,1015.799981 V 23.343919 m 50.79,1015.799981 V 23.343919 m 50.791,1015.799981 V 23.343919 m 50.791,1015.799981 V 23.343919 m 50.79,1015.799981 V 23.343919 m 50.79,1015.799981 V 23.343919 m 50.79,1015.799981 V 23.343919 m 50.79,1015.799981 V 23.343919 m 50.791,1015.799981 V 23.343919 m 50.79,1015.799981 V 23.343919 m 50.791,1015.799981 V 23.343919 m 50.79,1015.799981 V 23.343919 m 50.79,1015.799981 V 23.343919 m 50.79,1015.799981 V 23.343919 m 50.79,1015.799981 V 23.343919 m 50.791,1015.799981 V 23.343919 m 50.79,1015.799981 V 23.343919 m 50.791,1015.799981 V 23.343919 m 50.79,1015.799981 V 23.343919 m 50.81,1015.799981 V 23.343919 m 50.79,1015.799981 V 23.343919 m 50.79,1015.799981 V 23.343919 m 50.791,1015.799981 V 23.343919 m 50.791,1015.799981 V 23.343919 m 50.79,1015.799981 V 23.343919 m 50.79,1015.799981 V 23.343919 m 50.79,1015.799981 V 23.343919 m 50.7,1015.799981 V 23.343919 m 50.79,1015.799981 V 23.343919 m 50.791,1015.799981 V 23.343919"
         id="path3866"
         inkscape:connector-curvature="0"
         style="fill:none;stroke:#000000;stroke-width:1.76960003" />
      <path
         inkscape:connector-curvature="0"
         id="path5820"
         d="m -1102.6046,34.645947 -16.1122,25.204086 -39.5133,61.725077 -12.9665,-7.32723 -19.6799,-11.12509 -8.2863,21.06096 -49.9478,127.13292 -12.0458,-2.18665 -15.9971,-2.91554 -5.831,15.15314 -22.3269,57.96555 -12.1993,-14.38589 -13.1199,27.39074 -39.59,82.86274 -26.3933,31.72569 -6.7902,-20.79241 -1.0742,-3.29916 -2.1098,-2.72373 -86.3154,-110.4453 -15.6135,-19.91007 -15.4217,20.02516 -32.9149,42.65897 -24.8204,-26.35496 -21.7899,-23.17087 -10.9716,29.88429 -30.1145,82.09549 -2.3018,-2.80045 -21.5979,-26.16314 -11.9308,31.76405 -61.8785,164.61297 -17.2247,-12.92812 -11.01,19.44973 -28.3114,50.02454 -15.8437,-9.13025 -17.1097,-9.85913 -9.7823,17.14799 -6.0613,10.62638 -41.4313,-93.87275 -17.8002,-40.39559 -18.0687,40.2805 -54.8965,122.33763 -12.0075,-1.7263 -13.5036,-1.91812 -6.5216,11.96906 -42.9274,78.71961 -19.7183,-39.47489 -15.9204,41.89172 -12.6596,33.37527 -8.4013,-15.57513 -15.6136,39.01454 -22.8639,57.12159 36.4826,14.5777 7.2505,-18.10704 9.3604,17.37815 15.2682,-40.20377 12.0075,-31.72569 13.2734,26.54677 18.0303,-33.03001 54.3979,-99.74219 13.1582,1.87976 14.6544,2.10993 6.0613,-13.50356 42.8508,-95.52233 39.2831,89.07745 15.7286,35.60029 19.2962,-33.79726 15.6136,-27.31401 15.9203,9.20697 17.148,9.89749 9.7824,-17.26307 27.0455,-47.83789 2.4552,1.8414 20.9459,15.72857 9.2069,-24.51356 59.1931,-157.40084 2.4936,3.03062 21.8282,26.39332 11.7773,-32.14767 30.9201,-84.35888 18.8358,19.9868 15.8053,16.76436 14.0407,-18.26049 31.5338,-40.8943 68.6304,87.84985 16.6876,51.25214 11.01,33.79726 22.7489,-27.31401 50.7918,-60.91946 1.5729,-1.87976 1.0357,-2.22502 27.5442,-57.65866 15.7286,18.60576 11.9307,-30.92008 28.4265,-73.69413 11.9308,2.18665 15.882,2.87718 5.9078,-15.03805 47.5693,-121.11004 9.5522,5.37074 16.1889,9.13024 10.0127,-15.65185 33.4135,-52.2112 187.63053,278.54925 32.608,-21.94329 -204.39473,-303.369707 -16.726,-24.820456 z"
         style="font-size:medium;font-style:normal;font-variant:normal;font-weight:normal;font-stretch:normal;text-indent:0;text-align:start;text-decoration:none;line-height:normal;letter-spacing:normal;word-spacing:normal;text-transform:none;direction:ltr;block-progression:tb;writing-mode:lr-tb;text-anchor:start;baseline-shift:baseline;color:#000000;fill:#ff0000;fill-opacity:1;stroke:none;stroke-width:32;marker:none;visibility:visible;display:inline;overflow:visible;filter:url(#filter6308);enable-background:accumulate;font-family:Sans;-inkscape-font-specification:Sans" />
      <path
         style="fill:#000000;stroke:none"
         d="m -789.99768,643.39087 c -1.07331,-0.0413 -2.01544,0.22135 -2.75965,0.70823 -7.76469,9.35704 -10.25426,12.59977 -15.36126,18.92683 -1.60952,1.99405 -3.26456,3.89111 -5.05529,5.56815 l -0.0488,-0.12211 c -4.86664,2.86809 -10.37759,4.23169 -17.60805,1.92931 -2.53044,-0.9003 -5.01324,-1.46378 -7.44862,-1.8072 -0.70671,-0.0996 -2.18814,0.1293 -3.88305,0.31748 l -0.17095,-0.39075 c -6.51404,0.87449 -12.40819,2.81255 -18.07207,3.34578 -14.28662,0.77224 -27.5213,4.84207 -41.76112,10.84323 -1.56576,0.65987 -1.38132,2.70257 -2.22238,3.46789 l 0.17095,0.36632 c -1.54423,2.38537 -2.29564,1.80721 -2.29564,1.80721 -2.74901,0.84826 -4.28326,0.43396 -6.20311,-0.51286 -3.05004,-1.55005 -14.89253,-0.14578 -15.752,4.81108 -0.32228,1.85882 -0.55588,4.31485 -0.26864,6.83808 0.47874,4.20536 2.39283,8.56542 7.71726,10.52576 8.5191,3.13657 18.94229,0.32872 20.09907,-2.66197 0.60446,-1.56266 0.40159,-7.14879 2.73523,-7.71726 0.50927,0.35657 1.10305,0.64674 1.70952,0.92802 3.2524,9.05152 0.59482,15.24956 0.51285,21.369 -0.0651,4.86084 -5.72244,11.313 -13.30983,17.6569 -5.01518,3.39797 -8.62561,13.27107 2.05142,10.62344 10.78773,-2.67517 19.26518,-13.7815 21.0271,-20.51424 0.0991,-0.3789 3.11174,-25.78355 3.37019,-27.52326 l 0.41517,-0.0977 c 2.65114,5.91885 5.27819,12.38402 6.00774,13.92037 1.98955,4.1898 3.79187,22.73079 4.8355,28.42687 1.04369,5.69609 4.61353,10.05376 8.52318,6.83808 3.90959,-3.21562 0.87153,-17.1124 0.97687,-22.29702 0.10537,-5.18454 -2.71104,-17.41844 -5.29952,-23.66463 -0.68331,-1.64887 -1.68133,-3.67729 -2.85734,-5.83679 l 4.76224,-1.02571 c 2.91084,-0.62811 1.725,-1.14178 10.25712,-2.4666 1.02099,-0.1585 2.7271,-0.79919 4.68896,-1.70952 0.42004,0.40985 0.90114,0.86874 1.09898,1.09898 1.7492,2.03429 4.55044,16.0446 6.93577,18.9024 0.16045,3.01433 10.71198,4.36881 14.70187,4.95761 5.40465,0.78979 9.55201,1.2871 16.28928,1.85605 2.90105,0.245 5.83531,5.93302 7.03345,9.37794 2.08521,5.99549 6.27664,3.05266 6.91134,-9.13372 0.66056,-12.68246 -0.0829,-10.12806 -22.73661,-14.2867 -3.10412,-0.56985 -8.19112,-0.40928 -11.20956,-2.61313 -1.37002,-3.78521 -4.59543,-13.35379 -6.03217,-18.38954 10.31009,1.743 18.19832,-0.93201 26.61967,-4.10285 0.43104,-0.16812 0.81149,-0.34948 1.17224,-0.53728 l 0.0977,0.24422 c 7.02681,-5.0475 12.41187,-11.53267 16.58234,-18.14533 2.87991,-4.56639 5.84414,-6.35576 8.35222,-5.44604 2.5081,0.90979 14.22185,5.11096 7.49747,-4.51802 -5.04331,-7.22174 -9.57703,-10.01117 -12.79698,-10.13501 z"
         id="path6331"
         inkscape:connector-curvature="0" />
      <path
         style="fill:#000000;stroke:none"
         d="m -951.97059,773.08637 c -2.19202,0.0353 -4.26323,0.41631 -5.86121,0.83034 -4.87001,1.26179 -5.28648,13.18079 -3.4923,16.09391 1.10058,1.83603 1.0603,2.41709 0.43959,5.22624 0,0 -0.16215,1.43546 -1.29435,3.00387 -6.21032,-3.0627 -18.22404,-5.13632 -24.15307,-4.3959 -6.70918,0.83789 -7.23152,2.51009 -9.74426,5.20182 -5.70701,6.11351 -9.41911,17.89502 -10.28151,22.88314 -0.8625,4.98821 2.2499,7.0373 7.71723,5.12856 5.46726,-1.90878 7.14571,-18.68263 11.77126,-19.02451 3.13693,-0.23186 17.55488,-3.06074 17.24173,8.08359 -1.55977,6.08331 -2.8051,12.18582 -2.68639,17.41268 -0.18982,2.77754 -0.62226,3.53936 -0.65939,9.91521 -0.0684,5.68851 0.0949,5.81809 -0.24421,12.38181 l 0.0732,0.0488 -0.41517,0.0977 c 1.67139,4.97654 6.23138,7.98829 11.60032,9.59773 l 1.26992,1.09898 0,-0.31749 2.17354,0.0489 c 0.86856,0.16151 1.75834,0.28884 2.63754,0.39074 7.70645,0.89324 8.73201,2.24967 14.09133,4.24938 l 0.46401,-0.9036 -0.26864,1.31877 c 2.69818,1.01139 5.31031,2.40616 7.91264,3.95632 6.98555,4.16112 10.42411,6.35035 20.95382,12.43065 0.86694,0.19829 1.84064,0.0937 2.83292,-0.31748 2.97678,-1.23375 6.27558,-5.39712 8.49876,-13.92038 2.96423,-11.36432 -6.56004,-3.36002 -8.59645,-1.63625 -2.0364,1.72369 -5.43402,1.08497 -9.71984,-2.19796 -5.38986,-4.12859 -9.65261,-7.8134 -16.14275,-10.20827 l 0.0977,-0.19538 c -0.81047,-0.48952 -1.45023,-0.99533 -2.36891,-1.4653 -1.09923,-0.56232 -2.17032,-1.03621 -3.19924,-1.44088 3.84481,-0.22446 7.67976,-0.34408 9.71984,-0.21979 0.25372,0.0155 1.12238,-0.01 2.19796,-0.0245 4.92608,0.55724 11.40547,0.85294 14.67744,0.61055 22.96977,-1.70149 22.91041,1.7147 23.6158,-10.96535 0.67781,-12.18406 -3.16854,-15.55438 -5.88564,-9.81753 -1.56119,3.29631 -5.09973,8.64001 -8.01032,8.57202 -6.75942,-0.15794 -8.24237,-0.66878 -13.70058,-0.46401 -4.34569,0.16913 -11.62728,-1.47967 -16.26485,-0.78149 -4.90509,-0.18288 -10.74411,-0.38883 -13.11446,-1.02572 0.70698,-6.04313 1.93354,-13.04525 3.05271,-20.39212 5.9884,1.61156 12.27645,3.29843 12.50392,3.34577 6.81349,1.41798 23.77081,-2.29942 30.96672,-10.76997 7.12201,-8.38368 -1.17268,-10.08605 -6.44733,-7.10672 -5.27465,2.97935 -10.0718,3.38825 -14.14017,4.78665 -4.06838,1.39831 -9.06287,0.089 -13.38309,-2.73523 -2.54193,-1.66167 -5.71282,-2.469 -9.76869,-2.90618 -0.32036,-1.08288 -0.28546,-1.98697 -0.0245,-2.73523 0.63626,-1.8237 2.65361,-2.81965 4.39591,-3.66326 2.88611,-1.39737 4.84817,-12.0114 1.02571,-20.2456 -2.38901,-5.14637 -6.88145,-6.7047 -11.11188,-6.83808 -0.31728,-0.01 -0.6393,-0.005 -0.95244,0 z"
         id="path6333"
         inkscape:connector-curvature="0" />
      <path
         style="fill:#000000;stroke:none"
         d="m -823.86242,847.9065 c -0.67946,0.002 -1.42879,0.01 -2.22238,0.0245 -12.20084,0.22503 -15.27557,4.30845 -9.35351,6.59386 3.40273,1.31317 8.9863,4.4433 9.13371,7.35093 0.34236,6.7526 0.68652,10.91001 1.29436,16.33813 0.79195,4.60851 -0.34428,10.04457 2.22237,13.92037 3.26323,4.92769 9.57561,8.39995 7.644,12.43065 -0.0703,0.12726 -0.1083,0.24347 -0.17096,0.36633 -2.6987,2.12876 -5.66757,4.32925 -8.71855,6.6427 -4.43919,0.80085 -12.5921,-4.25238 -18.07206,-9.20698 -5.16234,-4.66742 -17.42352,-7.16394 -27.91402,-3.49231 -10.38279,3.63406 -4.1339,9.29481 1.92327,9.39017 6.05718,0.0953 9.78864,-0.31241 14.00587,0.53735 4.2172,0.84984 10.97902,6.96744 13.27923,11.58801 1.842,2.75441 3.61226,6.0146 -0.0977,8.01032 -1.71958,0.87961 -3.87198,0.2023 -5.71468,-0.39075 -3.05239,-0.98244 -11.80451,5.34967 -14.72629,13.9448 -1.82613,5.37195 0.35378,9.6081 3.32135,12.62602 1.78055,1.81076 3.84728,3.18389 5.49489,4.10285 4.39362,2.45055 12.93763,-5.88544 13.65173,-9.2314 0.63221,-1.76716 -0.0141,-7.57233 5.27512,-7.6012 4.48749,0.36096 3.62707,12.11057 3.17476,15.34302 -3.04049,5.43129 -10.19899,20.63736 -3.25959,22.30901 7.93336,1.91107 13.43105,-10.90537 15.788,-19.08549 1.60332,-5.56452 -0.26353,-21.76751 2.52774,-25.47177 5.48753,-7.28245 17.23034,-11.36594 21.82071,-16.09398 2.85593,-2.91988 5.17967,-4.97596 6.39848,-8.23011 2.97703,-7.94843 -0.59686,-21.62005 1.42268,-25.42317 5.1919,-9.77718 6.56917,-18.20521 8.7856,-30.16064 -0.10249,-0.88341 -0.52662,-1.76621 -1.24551,-2.56428 -2.15668,-2.39417 -7.19532,-4.09537 -15.9718,-3.34578 -11.70195,0.99948 -0.98591,7.30113 1.31878,8.64529 2.30461,1.34418 3.9006,5.23226 1.17224,9.89079 -4.57759,7.81599 -8.42383,20.36139 -8.29723,32.29158 -5.15188,-6.29748 -9.46984,-9.48541 -11.72854,-15.58105 -1.53695,-4.14782 -0.42517,-10.02805 -0.85483,-13.24269 -3.18323,-21.3568 -1.11538,-23.26237 -11.30725,-23.22504 z"
         id="path6335"
         inkscape:connector-curvature="0"
         sodipodi:nodetypes="sssscscccsssccccssscccssscasccscscacs" />
      <path
         style="fill:#000000;stroke:none"
         d="m -991.00461,529.02407 c -3.66227,-0.12403 -4.39672,1.88926 -1.66067,4.76223 2.51534,2.6412 6.21326,7.85834 5.10414,10.55018 -2.57582,6.2514 -4.01811,10.14506 -5.78795,15.31241 -1.4695,4.29077 -3.9737,8.48212 -3.98074,13.01677 -0.002,1.63119 1.42271,4.58492 1.41646,4.68897 0,0 0.46469,-0.10575 0.5617,-0.12211 5.13325,5.88272 19.7494,8.16743 22.93199,16.14275 0.086,0.44975 0.27986,1.37672 0.3419,1.70952 1.03402,5.47587 1.64126,12.23558 2.34448,19.4641 0.0751,3.73303 -0.0653,7.33353 -3.63883,10.13501 -5.47706,4.29376 -14.35552,21.79515 -13.48078,32.45646 0.89953,10.96355 8.4282,6.15097 9.2314,0.14653 0.80317,-6.00445 2.76843,-13.62097 5.66584,-17.33942 2.34176,-3.00537 3.02581,-6.8122 6.20311,-6.22753 1.1457,1.37494 1.52429,2.56355 1.44088,3.61441 -0.15286,1.92545 -1.85003,3.38216 -3.32135,4.64012 -2.43725,2.08375 -1.63441,12.88398 4.15169,19.87928 3.6163,4.37206 8.35359,4.72943 12.4795,3.78536 2.47554,-0.56644 4.72757,-1.61892 6.37406,-2.53986 4.39067,-2.45584 1.7662,-14.09749 -0.70823,-16.46023 -1.53031,-1.49681 -1.62179,-2.05846 -1.73394,-4.93318 0,0 -0.24399,-1.56217 0.5617,-3.46789 0.2214,-0.52369 0.51604,-1.06328 0.92802,-1.61183 2.4381,-2.27696 5.49724,-3.57665 8.08359,-2.78407 4.91043,1.50479 9.35048,2.62566 11.698,9.47562 1.87739,5.47816 4.97464,12.40529 9.84195,11.01419 4.86909,-1.39162 -1.4977,-16.37872 -6.27638,-22.54124 -4.67074,-6.02331 -14.32611,-7.4688 -19.80601,-11.42936 -1.40488,-1.01536 -2.14855,-2.4767 -2.56428,-4.07842 -0.3231,-5.04348 -0.73255,-9.82598 -1.1234,-14.5065 -0.52093,-2.73486 -0.29905,-3.59196 -1.88047,-9.76868 -0.49138,-1.97014 -0.81401,-4.03054 -1.09897,-6.15427 0.0923,-0.8223 0.0543,-1.63069 -0.31749,-2.39333 -0.32974,-2.6982 -0.64596,-5.48695 -1.17224,-8.3278 0.0372,-3.5985 0.79662,-6.88013 2.027,-9.93964 l -0.17095,-0.0488 c 0.6266,-1.5166 1.27222,-3.01156 1.63626,-4.24938 2.2941,-7.80064 3.56602,-11.68539 6.83807,-23.396 -0.0234,-0.88901 -0.35631,-1.80305 -1.00129,-2.66197 -1.93497,-2.57667 -6.82152,-4.72745 -15.62989,-4.76223 -11.74446,-0.0463 -1.61416,7.17454 0.5617,8.71855 2.17579,1.54402 2.38318,4.99671 0.26864,9.96406 -2.78133,6.53376 -6.10995,10.23643 -6.81366,17.33941 -0.11279,0.61991 -0.20712,1.20828 -0.29306,1.78279 l -1.53857,7.49746 c -0.87754,-0.46211 -2.04689,-0.80892 -3.34577,-1.00129 l -15.16588,-3.29693 c -2.93022,-3.45935 2.54588,-8.5649 3.73652,-12.50391 6.66414,-22.04708 9.28441,-21.5524 -2.29564,-26.7662 -4.17265,-1.8787 -7.4248,-2.70966 -9.62216,-2.78407 z"
         id="path6337"
         inkscape:connector-curvature="0" />
      <path
         style="fill:#000000;stroke:none"
         d="m -880.34984,429.03353 c -2.77373,0.0801 -5.88338,4.39223 -6.47175,8.13243 -0.94138,5.98434 -3.59977,10.00993 -5.03087,14.06691 -1.43119,4.05693 -5.53126,7.1603 -10.42807,8.79181 -2.20902,0.73603 -4.27112,2.06831 -6.39849,3.95632 -0.80635,-0.37472 -1.37696,-0.84876 -1.75837,-1.39204 -0.004,-0.005 0.004,-0.0191 0,-0.0245 -0.4869,-1.87456 -0.53559,-4.41971 -0.21979,-5.83679 0.69757,-3.12981 -6.41173,-11.26416 -15.23915,-13.3831 -5.51712,-1.32435 -9.5519,1.23664 -12.28412,4.46918 -1.63933,1.93953 -2.80202,4.11164 -3.56557,5.83679 -2.0361,4.60037 7.05504,12.34477 10.45249,12.74813 2.12252,0.27791 2.53109,0.65043 4.34707,2.88176 0,0 0.79077,0.77541 1.34319,2.17353 -3.81436,2.39009 -7.41623,5.1444 -9.69542,7.22883 -4.98935,4.56305 -12.70018,14.4538 -14.79955,19.19546 -2.09944,4.74169 -10.75268,16.04357 -8.57202,20.61192 2.18069,4.56844 7.26649,2.12995 10.62344,-2.5887 3.3569,-4.71865 12.8352,-20.75991 16.41139,-23.71348 1.79493,-1.48243 7.79744,-6.20075 11.64916,-8.42549 5.00181,6.88764 10.51473,14.44763 15.94737,18.26744 2.05887,1.87401 2.40165,2.70218 7.37536,6.69155 4.41555,3.58701 16.65791,12.35468 21.73532,8.18127 l 0.17095,-0.14653 0.0488,0.2198 c 0.82591,-0.45619 1.64999,-0.87634 2.46659,-1.39204 2.07954,-1.31322 4.11905,-2.82896 6.05658,-4.68897 3.39814,-3.04987 7.81898,-5.49158 12.08875,-6.88692 l 0,0.14653 c 2.77645,-0.77099 9.36564,-0.18495 12.38181,-0.46401 8.0964,-0.74913 12.18406,-1.01125 24.27518,-2.29564 0.81747,-0.35015 1.54029,-0.9883 2.10026,-1.9049 1.67985,-2.7498 1.87773,-8.09085 -1.34319,-16.28928 -1.34205,-3.416 -2.56135,-4.57977 -3.61441,-4.49359 -2.31675,0.18961 -3.83983,6.44792 -4.2738,8.23012 -0.63128,2.59221 -3.78545,4.08676 -9.18257,3.95631 -7.04399,-0.17021 -11.6089,-1.8358 -18.36512,0.0732 -4.45455,0.92192 -10.53615,2.77795 -15.53221,4.59128 0.88629,-4.29078 1.77007,-8.19879 3.56557,-11.60031 3.04391,-3.05443 7.0951,-6.62787 9.84195,-9.03603 17.31896,-15.18346 19.27935,-13.35815 12.21085,-23.90886 -6.79197,-10.13803 -11.90646,-10.53938 -10.62344,-4.32264 0.73721,3.57205 1.11979,9.97608 -1.24551,11.67358 -5.49307,3.94219 -8.78115,6.49095 -13.01677,9.93963 -3.517,2.86372 -4.96591,3.03547 -6.34964,4.51802 -1.33689,1.01326 -2.39104,2.83599 -3.27251,5.00645 -0.16616,0.094 -0.31481,0.13867 -0.46401,0.12211 l 0.31748,0.19537 c -1.62879,4.152 -2.6167,9.34041 -3.63884,12.16201 -5.47988,-4.92915 -8.47127,-7.09944 -5.78794,-6.49617 l -12.77256,-13.16323 c 4.88481,-3.15424 12.70331,-8.19659 12.91909,-8.37664 5.34341,-4.45896 11.81525,-16.86665 9.64657,-27.76749 -0.80494,-4.04585 -2.36534,-5.51854 -4.02958,-5.47046 z m 2.90618,48.64805 c 0.12014,0.15232 0.27143,0.24604 0.41517,0.26864 l -0.41517,-0.26864 z"
         id="path6339"
         inkscape:connector-curvature="0" />
      <path
         sodipodi:nodetypes="sssscscccsssccccssscccssscasccscscacs"
         inkscape:connector-curvature="0"
         id="path6341"
         d="m -877.17643,1012.2814 c 0.64715,0.207 1.35941,0.4399 2.11168,0.6931 11.56574,3.8916 13.26688,8.7118 6.93139,9.1062 -3.64029,0.2266 -9.90759,1.5284 -10.92444,4.2564 -2.36151,6.3355 -3.94261,10.1959 -6.15808,15.1884 -2.14403,4.1556 -2.69892,9.6814 -6.31431,12.6034 -4.5966,3.7151 -11.66193,5.1235 -11.03489,9.549 0.0287,0.1425 0.0299,0.2648 0.0526,0.4008 1.93167,2.8431 4.09934,5.8361 6.31124,8.9614 3.99144,2.1015 13.28821,-0.2597 20.00657,-3.3324 6.32896,-2.8946 18.77246,-1.5798 27.66866,5.0827 8.80484,6.5942 1.14048,10.1085 -4.66381,8.3739 -5.80428,-1.7345 -9.23937,-3.2479 -13.51661,-3.7087 -4.27726,-0.4606 -12.56838,3.3348 -16.15416,7.0473 -2.58647,2.0711 -5.25697,4.6462 -2.32098,7.6673 1.37455,1.3569 3.631,1.3598 5.56673,1.3497 3.20657,-0.017 9.64343,8.6585 9.83898,17.7346 0.12225,5.6725 -3.23298,9.0547 -6.97209,11.038 -2.24349,1.19 -4.62794,1.8764 -6.47591,2.256 -4.92787,1.0125 -10.56237,-9.5109 -10.23488,-12.9165 -0.0703,-1.8755 2.29552,-7.216 -2.73904,-8.8376 -4.38763,-1.0082 -7.10826,10.4545 -7.65116,13.6729 1.26226,6.0951 3.5052,22.7516 -3.61535,22.2542 -8.14045,-0.5688 -9.51997,-14.4462 -9.30206,-22.9562 0.14825,-5.7891 6.81147,-20.6761 5.26637,-25.0493 -3.03763,-8.5977 -13.0038,-16.0304 -15.95584,-21.922 -1.84316,-3.6448 -3.4392,-6.3056 -3.62063,-9.7758 -0.44315,-8.4761 7.08487,-20.4349 6.30539,-24.6699 -2.0039,-10.8873 -0.77713,-19.3385 0.71256,-31.4061 0.36396,-0.8114 1.03442,-1.5254 1.96041,-2.0697 2.77795,-1.6329 8.09503,-1.7364 16.23754,1.6233 10.85665,4.4797 -1.26032,7.2588 -3.86294,7.8459 -2.60256,0.5871 -5.29613,3.8134 -4.09858,9.0776 2.00921,8.8322 1.89574,21.9535 -1.82044,33.2908 6.81025,-4.452 11.88821,-6.1904 15.87898,-11.3219 2.71554,-3.4918 3.4276,-9.4337 4.8061,-12.3694 9.47164,-19.4044 8.07423,-21.8446 17.78099,-18.7374 z"
         style="fill:#000000;stroke:none" />
      <path
         style="fill:#000000;stroke:none"
         d="m -970.5623,1055.3346 c 0.64716,-0.207 1.35941,-0.4399 2.11168,-0.6931 11.56575,-3.8916 13.26688,-8.7118 6.9314,-9.1062 -3.64029,-0.2266 -9.9076,-1.5284 -10.92445,-4.2565 -2.3615,-6.3355 -3.94261,-10.1958 -6.15808,-15.1884 -2.14403,-4.1556 -2.69892,-9.6813 -6.31431,-12.6034 -4.59659,-3.7151 -11.66193,-5.1235 -11.03488,-9.549 0.0287,-0.1425 0.0299,-0.2647 0.0526,-0.4008 1.93168,-2.8431 4.09934,-5.836 6.31124,-8.96139 3.99144,-2.10147 11.63974,-2.45263 10.72897,4.8787 -1.40237,11.28859 -5.6386,19.77889 1.82393,21.20389 6.23252,1.19 8.33748,-16.8181 8.1061,-22.55783 -0.17328,-4.29849 -3.73256,-13.27496 -7.31835,-16.98748 -2.58647,-2.07121 -5.25697,-4.6463 -2.32098,-7.66734 1.37455,-1.35691 3.631,-1.3598 5.56674,-1.34972 3.20656,0.0172 9.64342,-8.6585 9.83897,-17.73463 0.12226,-5.67248 -3.23297,-9.05471 -6.97209,-11.03799 -2.24349,-1.18998 -4.62794,-1.87636 -6.4759,-2.25601 -4.92788,-1.01251 -10.56237,9.51086 -10.23489,12.91646 -0.0702,1.87551 2.29552,7.21601 -2.73903,8.83761 -4.38764,1.00821 -7.10827,-10.45444 -7.65117,-13.67287 1.26227,-6.09511 3.5052,-22.75158 -3.6154,-22.25416 -8.1404,0.56877 -9.5199,14.44617 -9.302,22.95617 0.1482,5.78908 6.8115,20.6761 5.2663,25.04936 -3.0376,8.59774 -13.0037,16.03034 -15.9558,21.92197 -1.8431,3.64486 -3.1539,6.33236 -3.6206,9.77576 -1.1086,8.1785 2.8878,20.435 2.1084,24.6699 -2.0039,10.8874 -0.7772,19.3386 0.7125,31.4061 0.364,0.8115 1.0344,1.5254 1.9604,2.0698 2.778,1.6328 8.0951,1.7364 16.2376,-1.6234 10.85664,-4.4796 -1.2603,-7.2587 -3.863,-7.8459 -2.6025,-0.5871 -6.6215,-4.6969 -5.4239,-9.9612 2.0092,-8.8321 4.3256,-20.628 3.7019,-32.4072 6.8103,4.4521 11.88824,6.1904 15.87901,11.322 2.71554,3.4917 3.4276,9.4336 4.8061,12.3693 9.47164,19.4045 8.07424,21.8447 17.781,18.7375 z"
         id="path6343"
         inkscape:connector-curvature="0"
         sodipodi:nodetypes="sssscscccssscccssscccssscasccscscacs" />
    </g>
  </g>
</svg>
